<svg width="20" height="17" viewBox="0 0 20 17" fill="none" xmlns="http://www.w3.org/2000/svg">
<path d="M16.2066 11.4915C15.9352 11.4401 15.6737 11.6185 15.6224 11.8898C15.571 12.1611 15.7494 12.4227 16.0207 12.474L16.2066 11.4915ZM6.08116 12.2781C6.35497 12.2422 6.54785 11.9912 6.51199 11.7174C6.47613 11.4436 6.22509 11.2507 5.95129 11.2866L6.08116 12.2781ZM4.19005 0.737915C3.91391 0.737915 3.69005 0.961773 3.69005 1.23792C3.69005 1.51406 3.91391 1.73792 4.19005 1.73792V0.737915ZM10.1911 11.4989C10.1911 11.7751 10.4149 11.9989 10.6911 11.9989C10.9672 11.9989 11.1911 11.7751 11.1911 11.4989H10.1911ZM10.3453 12.0267C10.1459 12.2177 10.1389 12.5342 10.3299 12.7337C10.5208 12.9331 10.8373 12.9401 11.0368 12.7491L10.3453 12.0267ZM13.823 10.0821C14.0225 9.89116 14.0294 9.57465 13.8384 9.37517C13.6475 9.17569 13.331 9.16877 13.1315 9.35972L13.823 10.0821ZM8.25067 9.35972C8.05119 9.16877 7.73468 9.17569 7.54373 9.37517C7.35278 9.57465 7.3597 9.89116 7.55918 10.0821L8.25067 9.35972ZM10.3453 12.7491C10.5448 12.9401 10.8613 12.9331 11.0523 12.7337C11.2432 12.5342 11.2363 12.2177 11.0368 12.0267L10.3453 12.7491ZM4.19005 1.73792C4.46619 1.73792 4.69005 1.51406 4.69005 1.23792C4.69005 0.961773 4.46619 0.737915 4.19005 0.737915V1.73792ZM2.05578 0.737915C1.77963 0.737915 1.55578 0.961773 1.55578 1.23792C1.55578 1.51406 1.77963 1.73792 2.05578 1.73792V0.737915ZM16.0207 12.474C17.0144 12.662 17.7963 12.8938 18.3169 13.1427C18.5784 13.2676 18.748 13.3847 18.8454 13.482C18.9416 13.578 18.9324 13.6172 18.9324 13.6033H19.9324C19.9324 13.2625 19.7616 12.9836 19.5519 12.7743C19.3436 12.5663 19.0632 12.391 18.7481 12.2404C18.1157 11.9382 17.2381 11.6866 16.2066 11.4915L16.0207 12.474ZM18.9324 13.6033C18.9324 13.5918 18.9396 13.6199 18.8745 13.6938C18.8066 13.7708 18.6837 13.869 18.4846 13.9783C18.0868 14.1966 17.4782 14.4091 16.6833 14.5936C15.1015 14.9609 12.8913 15.1927 10.4324 15.1927L10.4324 16.1927C12.9442 16.1927 15.2339 15.9567 16.9095 15.5677C17.7433 15.3742 18.4526 15.1365 18.9657 14.8549C19.2221 14.7142 19.4528 14.55 19.6247 14.355C19.7993 14.1568 19.9324 13.9032 19.9324 13.6033H18.9324ZM10.4324 15.1927C7.97359 15.1927 5.76332 14.9609 4.18154 14.5936C3.38666 14.4091 2.77802 14.1966 2.38028 13.9783C2.18119 13.869 2.05827 13.7708 1.99037 13.6938C1.92526 13.6199 1.93243 13.5918 1.93243 13.6033H0.932434C0.932434 13.9032 1.06553 14.1568 1.2402 14.355C1.41207 14.55 1.64278 14.7142 1.89912 14.8549C2.41223 15.1365 3.12161 15.3742 3.9554 15.5677C5.63099 15.9567 7.92071 16.1927 10.4324 16.1927L10.4324 15.1927ZM1.93243 13.6033C1.93243 13.6205 1.9213 13.5587 2.0833 13.4242C2.24077 13.2934 2.50159 13.1472 2.87953 13.0002C3.63062 12.708 4.73228 12.4548 6.08116 12.2781L5.95129 11.2866C4.56392 11.4683 3.37368 11.7349 2.51695 12.0682C2.09097 12.234 1.71889 12.427 1.44444 12.6549C1.17451 12.879 0.932434 13.1954 0.932434 13.6033H1.93243ZM4.19005 1.73792C7.52515 1.73792 10.1911 4.32056 10.1911 7.46092H11.1911C11.1911 3.72753 8.03579 0.737915 4.19005 0.737915V1.73792ZM10.1911 7.46092V11.4989H11.1911V7.46092H10.1911ZM11.0368 12.7491L13.823 10.0821L13.1315 9.35972L10.3453 12.0267L11.0368 12.7491ZM7.55918 10.0821L10.3453 12.7491L11.0368 12.0267L8.25067 9.35972L7.55918 10.0821ZM4.19005 0.737915L2.05578 0.737915V1.73792L4.19005 1.73792V0.737915Z" fill="#1A93DA"/>
</svg>
