<svg width="24" height="24" viewBox="0 0 24 24" fill="none" xmlns="http://www.w3.org/2000/svg">
<mask id="path-1-inside-1" fill="white">
<path fill-rule="evenodd" clip-rule="evenodd" d="M5.18279 7.53948H15.0561H15.0561C18.0773 7.53948 20.5 10.1443 20.5 13.2703V13.2703C20.5 16.3964 18.0773 19.0012 15.0561 19.0012C15.0548 19.0012 15.0534 19.0012 15.0521 19.0012H4.00001C3.72387 19.0012 3.50001 18.7773 3.50001 18.5012C3.50001 18.225 3.72387 18.0012 4.00001 18.0012H15.0561C15.0574 18.0012 15.0587 18.0012 15.0599 18.0012C17.4748 17.999 19.5 15.8966 19.5 13.2703V13.2703C19.5 10.6427 17.4727 8.53948 15.0561 8.53948H15.0561H5.14215L8.09693 11.7397C8.28426 11.9426 8.27165 12.2589 8.06876 12.4462C7.86587 12.6336 7.54954 12.621 7.36221 12.4181L3.63263 8.37869C3.53924 8.27754 3.49554 8.1482 3.50034 8.0207C3.49469 7.88432 3.54458 7.74615 3.64968 7.64301L7.44968 3.91342C7.64676 3.71999 7.96332 3.72295 8.15675 3.92003C8.35018 4.11711 8.34722 4.43368 8.15014 4.62711L5.18279 7.53948Z"/>
</mask>
<path d="M5.18279 7.53948L4.48232 6.82579C4.19245 7.11029 4.10345 7.54187 4.25713 7.91784C4.4108 8.29381 4.77662 8.53948 5.18279 8.53948V7.53948ZM15.0521 19.0012L15.0598 18.0012H15.0521V19.0012ZM15.0599 18.0012L15.0525 19.0012L15.0609 19.0012L15.0599 18.0012ZM5.14215 8.53948V7.53948C4.74493 7.53948 4.38537 7.77458 4.22608 8.13846C4.06679 8.50234 4.13797 8.926 4.40743 9.21785L5.14215 8.53948ZM8.09693 11.7397L8.83165 11.0613L8.83165 11.0613L8.09693 11.7397ZM8.06876 12.4462L8.74713 13.181L8.74713 13.181L8.06876 12.4462ZM7.36221 12.4181L8.09693 11.7397L8.09693 11.7397L7.36221 12.4181ZM3.63263 8.37869L2.89791 9.05706L2.89791 9.05706L3.63263 8.37869ZM3.50034 8.0207L4.49963 8.05831C4.50062 8.03199 4.50057 8.00563 4.49948 7.97931L3.50034 8.0207ZM3.64968 7.64301L4.35014 8.35669L4.35014 8.35669L3.64968 7.64301ZM7.44968 3.91342L6.74921 3.19973L6.74921 3.19973L7.44968 3.91342ZM8.15675 3.92003L8.87044 3.21957L8.87044 3.21957L8.15675 3.92003ZM8.15014 4.62711L7.44968 3.91342L7.44968 3.91342L8.15014 4.62711ZM15.0561 6.53948H5.18279V8.53948H15.0561V6.53948ZM15.0561 6.53948H15.0561V8.53948H15.0561V6.53948ZM21.5 13.2703C21.5 9.64732 18.6834 6.53948 15.0561 6.53948V8.53948C17.4713 8.53948 19.5 10.6412 19.5 13.2703H21.5ZM21.5 13.2703V13.2703H19.5V13.2703H21.5ZM15.0561 20.0012C18.6834 20.0012 21.5 16.8933 21.5 13.2703H19.5C19.5 15.8995 17.4713 18.0012 15.0561 18.0012V20.0012ZM15.0443 20.0011C15.048 20.0012 15.052 20.0012 15.0561 20.0012V18.0012C15.0576 18.0012 15.0588 18.0012 15.0598 18.0012L15.0443 20.0011ZM15.0521 18.0012H4.00001V20.0012H15.0521V18.0012ZM4.00001 18.0012C4.27615 18.0012 4.50001 18.225 4.50001 18.5012H2.50001C2.50001 19.3296 3.17158 20.0012 4.00001 20.0012V18.0012ZM4.50001 18.5012C4.50001 18.7773 4.27615 19.0012 4.00001 19.0012V17.0012C3.17158 17.0012 2.50001 17.6727 2.50001 18.5012H4.50001ZM4.00001 19.0012H15.0561V17.0012H4.00001V19.0012ZM15.0561 19.0012C15.0549 19.0012 15.0537 19.0012 15.0525 19.0012L15.0674 17.0012C15.0636 17.0012 15.0598 17.0012 15.0561 17.0012V19.0012ZM18.5 13.2703C18.5 15.3966 16.8714 16.9995 15.059 17.0012L15.0609 19.0012C18.0782 18.9984 20.5 16.3966 20.5 13.2703H18.5ZM18.5 13.2703V13.2703H20.5V13.2703H18.5ZM15.0561 9.53948C16.8697 9.53948 18.5 11.1429 18.5 13.2703H20.5C20.5 10.1425 18.0756 7.53948 15.0561 7.53948V9.53948ZM15.0561 9.53948H15.0561V7.53948H15.0561V9.53948ZM5.14215 9.53948H15.0561V7.53948H5.14215V9.53948ZM8.83165 11.0613L5.87687 7.86111L4.40743 9.21785L7.36221 12.4181L8.83165 11.0613ZM8.74713 13.181C9.35579 12.619 9.39363 11.67 8.83165 11.0613L7.36221 12.4181C7.17489 12.2152 7.1875 11.8989 7.39039 11.7115L8.74713 13.181ZM6.62749 13.0964C7.18948 13.7051 8.13847 13.7429 8.74713 13.181L7.39039 11.7115C7.59327 11.5242 7.9096 11.5368 8.09693 11.7397L6.62749 13.0964ZM2.89791 9.05706L6.62749 13.0964L8.09693 11.7397L4.36735 7.70031L2.89791 9.05706ZM2.50105 7.9831C2.48671 8.36406 2.61794 8.75383 2.89791 9.05706L4.36735 7.70032C4.46054 7.80125 4.50437 7.93234 4.49963 8.05831L2.50105 7.9831ZM2.94921 6.92932C2.63389 7.2388 2.48433 7.65503 2.5012 8.0621L4.49948 7.97931C4.50505 8.1136 4.45528 8.2535 4.35014 8.35669L2.94921 6.92932ZM6.74921 3.19973L2.94921 6.92932L4.35014 8.35669L8.15014 4.62711L6.74921 3.19973ZM8.87044 3.21957C8.29016 2.62833 7.34045 2.61945 6.74921 3.19973L8.15014 4.62711C7.95306 4.82054 7.63649 4.81758 7.44306 4.6205L8.87044 3.21957ZM8.8506 5.3408C9.44184 4.76051 9.45072 3.81081 8.87044 3.21957L7.44306 4.6205C7.24964 4.42342 7.2526 4.10685 7.44968 3.91342L8.8506 5.3408ZM5.88325 8.25317L8.8506 5.3408L7.44968 3.91342L4.48232 6.82579L5.88325 8.25317Z" fill="#3B3B3B" mask="url(#path-1-inside-1)"/>
</svg>
